<svg xmlns="http://www.w3.org/2000/svg" xmlns:xlink="http://www.w3.org/1999/xlink" width="375" zoomAndPan="magnify" viewBox="0 0 281.25 281.249989" height="375" preserveAspectRatio="xMidYMid meet" version="1.0"><defs><clipPath id="745e6e3bfb"><path d="M 38.683594 0 L 239 0 L 239 280.503906 L 38.683594 280.503906 Z M 38.683594 0 " clip-rule="nonzero"/></clipPath></defs><g clip-path="url(#745e6e3bfb)"><path fill="#ffffff" d="M 131.324219 0.113281 C 127.636719 0.0546875 123.945312 0.164062 120.28125 0.410156 C 115.105469 0.820312 108.882812 1.027344 104.398438 2.074219 C 122.789062 2.371094 141.96875 2.738281 159.144531 9.976562 C 132.273438 2.976562 102.980469 3.441406 77.015625 13.746094 C 76.457031 13.894531 74.535156 14.984375 76.09375 14.65625 C 87.617188 12.347656 99.382812 11.394531 111.125 11.292969 C 125.492188 11.261719 140.074219 11.640625 154.128906 14.648438 C 137.441406 12.757812 120.414062 12.246094 103.878906 15.714844 C 85.46875 19.773438 67.546875 25.953125 49.097656 29.722656 C 70.679688 28.910156 91.765625 23.1875 113.304688 22.175781 C 101.984375 26.0625 91.433594 32.234375 81.832031 39.449219 C 75.613281 44 68.933594 47.941406 62.757812 52.503906 C 68.117188 50.558594 73.179688 47.855469 78.40625 45.605469 C 60.769531 58.316406 46.078125 75.921875 38.679688 96.546875 C 51.347656 77.125 68.269531 60.511719 87.644531 47.800781 C 89.335938 46.832031 87.398438 48.710938 86.769531 49.089844 C 62.765625 68.089844 42.773438 95.386719 40.847656 126.824219 C 47.171875 109.988281 57.507812 94.894531 69.421875 81.515625 C 77.265625 73.066406 85.769531 64.746094 96.292969 59.746094 C 83.578125 71.636719 71.324219 84.441406 62.796875 99.753906 C 56.019531 112.054688 51.925781 126.011719 52.125 140.113281 C 52.261719 153.816406 56.652344 167.753906 65.359375 178.421875 C 58.113281 163.511719 57.710938 146.191406 60.726562 130.144531 C 63.246094 117.984375 67.652344 106.007812 74.703125 95.746094 C 67.007812 111.636719 62.628906 129.679688 65.339844 147.34375 C 68.566406 170.785156 84.175781 189.921875 100.347656 206.128906 C 93.433594 195.140625 87.355469 183.445312 84.105469 170.804688 C 80.734375 157.417969 79.835938 143.0625 83.300781 129.636719 C 82.160156 143.804688 85.503906 157.992188 91.148438 170.933594 C 99.667969 191.285156 113.933594 208.984375 120.066406 230.371094 C 120.703125 231.941406 120.53125 233.972656 121.496094 235.304688 C 122.753906 228.179688 122.441406 220.902344 121.964844 213.71875 C 120.851562 198.808594 118.640625 183.976562 118.410156 169.007812 C 121.695312 172.105469 123.722656 176.324219 125.816406 180.277344 C 131.75 192.394531 135.496094 205.539062 137.289062 218.894531 C 140.113281 239.988281 135.902344 261.996094 125.300781 280.460938 C 139.242188 268.632812 150.640625 253.597656 157.394531 236.539062 C 165.234375 216.757812 168.570312 195.261719 167.828125 174.027344 C 172.101562 195.503906 175.414062 217.828125 171.722656 239.648438 C 180.746094 227.527344 185.667969 212.71875 187.496094 197.8125 C 190.421875 174.34375 185.875 149.269531 171.902344 129.84375 C 170.914062 128.75 170.289062 127.164062 168.929688 126.496094 C 169.230469 132.453125 167.878906 138.308594 166.542969 144.078125 C 159.3125 134.167969 159.726562 120.324219 164.933594 109.597656 C 167.761719 103.464844 172.378906 98.382812 177.472656 94.042969 C 154.140625 94.578125 134.4375 116.40625 134.453125 139.433594 C 134.273438 150.238281 138.429688 160.511719 143.625 169.785156 C 132.609375 158.820312 124.152344 143.652344 124.992188 127.679688 C 125.667969 119.703125 128.164062 111.605469 132.835938 105.085938 C 129.820312 113.023438 127.589844 122.082031 129.417969 130.371094 C 131.707031 116.78125 140.496094 104.734375 152.011719 97.375 C 161.453125 91.027344 173.058594 89.414062 182.914062 83.945312 C 185.839844 82.84375 185.171875 76.714844 181.65625 77.210938 C 170.859375 76.765625 159.160156 78.113281 149.503906 72.175781 C 147.660156 70.933594 145.496094 69.335938 145.375 66.90625 C 154.507812 68.738281 163.832031 65.914062 173.011719 67.457031 C 176.417969 67.75 179.671875 69.195312 183.066406 69.316406 C 186.875 66.421875 187.972656 61.324219 188.542969 56.828125 C 188.988281 52.546875 188.214844 46.042969 183.035156 45.148438 C 172.359375 43.011719 161.324219 40.25 152.59375 33.40625 C 147.226562 29.054688 142.402344 24.035156 136.742188 20.054688 C 143.699219 21.527344 148.566406 27.203125 154.324219 30.9375 C 163.914062 37.058594 175.214844 40.257812 186.511719 40.980469 C 194.539062 39.695312 203.273438 40.324219 210.179688 44.980469 C 205.890625 29.933594 194.078125 17.527344 179.910156 11.304688 C 182.808594 14.3125 186.480469 16.636719 188.953125 20.089844 C 180.898438 14.851562 172.839844 9.382812 163.769531 6.007812 C 153.433594 1.96875 142.386719 0.289062 131.324219 0.113281 Z M 138.46875 25.773438 C 141.820312 28.902344 144.734375 32.625 148.230469 35.585938 C 145.339844 36.035156 142.222656 36.355469 139.691406 37.867188 C 138.847656 41.203125 138.761719 44.980469 140.46875 48.078125 C 142.363281 51.566406 145.863281 53.667969 148.5625 56.457031 C 148.757812 55.269531 148.808594 52.90625 150.359375 52.921875 C 154.933594 55.410156 160.53125 56.195312 165.527344 54.632812 C 169.210938 53.582031 171.035156 49.960938 171.722656 46.496094 C 173.585938 47.039062 175.472656 47.503906 177.363281 47.957031 C 175.507812 53.539062 170.628906 57.925781 164.984375 59.503906 C 157.851562 61.652344 150.136719 60.234375 143.414062 57.378906 C 134.964844 53.953125 128.015625 47.863281 120.097656 43.488281 C 125.890625 44.75 131.320312 47.417969 136.386719 50.425781 C 132.167969 45.628906 126.902344 41.484375 120.910156 39.125 C 114.363281 36.609375 107.230469 37.796875 100.582031 39.214844 C 99.695312 39.441406 100.945312 38.667969 101.1875 38.625 C 107.382812 36.144531 113.78125 33.976562 120.476562 33.433594 C 127.390625 32.699219 134.429688 33.738281 141.296875 32.636719 C 142.199219 30.273438 139.25 28.019531 138.46875 25.773438 Z M 147.644531 38.542969 C 148.027344 38.566406 146.332031 39.808594 146.046875 40.226562 C 143.5625 43.679688 145.496094 48.308594 147.625 51.464844 C 143.886719 48.675781 142.230469 40.785156 147.34375 38.613281 C 147.492188 38.5625 147.589844 38.539062 147.644531 38.542969 Z M 153.359375 40.019531 C 154.761719 40.089844 156.199219 40.546875 156.675781 41.953125 C 157.324219 43.136719 159.96875 42.816406 159.691406 44.4375 C 158.320312 45.316406 156.652344 45.289062 155.097656 45.402344 C 155.007812 47.210938 156.1875 48.980469 157.585938 50.066406 C 160.8125 51.699219 165.261719 49.660156 165.925781 46.027344 C 165.980469 44.210938 167.847656 45.242188 168.8125 45.769531 C 168.695312 48.449219 167.316406 51.367188 164.636719 52.332031 C 158.671875 54.832031 149.894531 51.230469 149.355469 44.25 C 149.210938 42.785156 147.390625 42.515625 146.714844 41.378906 C 148.273438 40.671875 150.285156 40.589844 152.011719 40.0625 C 152.429688 40.019531 152.894531 39.996094 153.359375 40.019531 Z M 196.136719 43.527344 C 195.484375 43.535156 194.832031 43.570312 194.179688 43.640625 C 192.421875 43.960938 190.257812 44.449219 189.300781 46.078125 C 189.652344 49.492188 191.609375 52.605469 191.65625 56.117188 C 195.199219 50.664062 202.644531 48.5 208.386719 51.878906 C 210.347656 53.378906 212.445312 51.855469 213.449219 50.046875 C 208.53125 46.273438 202.414062 43.46875 196.132812 43.527344 Z M 215.152344 51.570312 C 210.328125 56.183594 204.960938 60.300781 198.886719 63.136719 C 193.824219 65.277344 188.484375 67.152344 184.546875 71.175781 C 173.261719 67.972656 161.269531 70.496094 149.667969 69.898438 C 155.738281 71.640625 162.230469 70.90625 168.480469 71.394531 C 179.074219 71.460938 189.449219 74.980469 198.269531 80.773438 C 200.171875 82.265625 202.664062 81.84375 204.890625 81.675781 C 209.441406 81.28125 214.339844 82.453125 217.90625 85.347656 C 213.417969 84.042969 208.746094 84.855469 204.160156 84.722656 C 197.703125 84.320312 192.378906 80.121094 186.261719 78.480469 C 186.71875 81.308594 186.785156 84.574219 184.6875 86.800781 C 186.332031 88.578125 189.09375 88.574219 191.324219 89.144531 C 200.617188 90.632812 209.894531 92.296875 219.214844 93.558594 C 218.574219 90.3125 215.3125 88.582031 212.855469 86.777344 C 221.308594 89.324219 228.664062 97.113281 229.015625 106.222656 C 229.304688 110.925781 227.785156 115.457031 226.542969 119.917969 C 241.480469 105.257812 241.800781 80.097656 230.785156 63.042969 C 227.1875 57.582031 220.941406 53.691406 215.152344 51.570312 Z M 201.550781 52.898438 C 201.136719 52.890625 200.722656 52.929688 200.304688 53.015625 C 196.054688 53.925781 194.339844 58.519531 193.347656 62.253906 C 198.5625 62.402344 203.464844 59.53125 207.183594 56.117188 C 205.925781 54.300781 203.785156 52.9375 201.550781 52.898438 Z M 119.683594 89.019531 C 119.722656 89.058594 119.644531 89.179688 119.453125 89.375 C 107.417969 100.636719 99.273438 115.632812 94.796875 131.390625 C 92.617188 128.921875 91.257812 125.328125 89.667969 122.292969 C 88.28125 120.203125 90.488281 118.1875 91.234375 116.285156 C 97.613281 104.875 106.601562 93.78125 119.214844 89.136719 C 119.488281 89.015625 119.644531 88.976562 119.683594 89.019531 Z M 101.292969 92.558594 C 101.496094 92.582031 101.027344 93.082031 100.753906 93.363281 C 95.011719 98.554688 89.894531 104.480469 85.851562 111.085938 C 85.210938 108.765625 82.875 105.515625 85.4375 103.664062 C 89.734375 99.019531 94.910156 95.027344 100.832031 92.71875 C 101.082031 92.597656 101.222656 92.550781 101.292969 92.558594 Z M 126.992188 97.273438 C 127.855469 97.238281 125.898438 99.078125 125.457031 99.675781 C 113.757812 114.859375 110.453125 135.171875 112.597656 153.867188 C 108.136719 150.125 104.140625 145.703125 100.972656 140.824219 C 102.488281 130.628906 105.730469 120.558594 111.289062 111.820312 C 115.089844 105.953125 119.949219 100.335938 126.4375 97.414062 C 126.6875 97.324219 126.867188 97.28125 126.992188 97.273438 Z M 126.992188 97.273438 " fill-opacity="1" fill-rule="nonzero"/></g></svg>